<svg width="63" height="20" viewBox="0 0 63 20" fill="none" xmlns="http://www.w3.org/2000/svg">
<circle cx="10" cy="10" r="9.5" stroke="#FDFDFD"/>
<path d="M10.081 6.16347C10.565 6.16347 10.961 6.2368 11.269 6.38347C11.5843 6.5228 11.863 6.6878 12.105 6.87847C12.2517 6.98847 12.3617 7.00314 12.435 6.92247C12.5157 6.83447 12.5707 6.6328 12.6 6.31747H12.853C12.8383 6.5888 12.8273 6.9188 12.82 7.30747C12.8127 7.69614 12.809 8.20947 12.809 8.84747H12.556C12.5047 8.53214 12.457 8.2828 12.413 8.09947C12.369 7.9088 12.314 7.74747 12.248 7.61547C12.1893 7.48347 12.1087 7.35147 12.006 7.21947C11.7787 6.9188 11.4927 6.70247 11.148 6.57047C10.8033 6.43113 10.4403 6.36147 10.059 6.36147C9.69967 6.36147 9.37333 6.45313 9.08 6.63647C8.794 6.81247 8.54467 7.06914 8.332 7.40647C8.12667 7.7438 7.96533 8.1508 7.848 8.62747C7.738 9.10414 7.683 9.63947 7.683 10.2335C7.683 10.8495 7.74533 11.3958 7.87 11.8725C7.99467 12.3418 8.167 12.7378 8.387 13.0605C8.61433 13.3831 8.87833 13.6288 9.179 13.7975C9.487 13.9588 9.817 14.0395 10.169 14.0395C10.499 14.0395 10.8437 13.9735 11.203 13.8415C11.5623 13.7095 11.8447 13.4968 12.05 13.2035C12.2113 12.9908 12.3213 12.7598 12.38 12.5105C12.446 12.2611 12.5047 11.9128 12.556 11.4655H12.809C12.809 12.1328 12.8127 12.6718 12.82 13.0825C12.8273 13.4858 12.8383 13.8268 12.853 14.1055H12.6C12.5707 13.7901 12.5193 13.5921 12.446 13.5115C12.38 13.4308 12.2663 13.4418 12.105 13.5445C11.8337 13.7351 11.544 13.9038 11.236 14.0505C10.9353 14.1898 10.5467 14.2595 10.07 14.2595C9.37333 14.2595 8.761 14.1018 8.233 13.7865C7.71233 13.4711 7.30533 13.0165 7.012 12.4225C6.726 11.8285 6.583 11.1135 6.583 10.2775C6.583 9.45614 6.73333 8.73747 7.034 8.12147C7.33467 7.50547 7.74533 7.02514 8.266 6.68047C8.794 6.3358 9.399 6.16347 10.081 6.16347Z" fill="#FDFDFD"/>
<path d="M29.054 15.5V14.6051L32.4148 10.9261C32.8092 10.4953 33.134 10.1207 33.3892 9.80256C33.6444 9.48106 33.8333 9.17945 33.956 8.89773C34.0819 8.61269 34.1449 8.31439 34.1449 8.00284C34.1449 7.64489 34.0587 7.33499 33.8864 7.07315C33.7173 6.81132 33.4853 6.60914 33.1903 6.46662C32.8954 6.3241 32.5639 6.25284 32.196 6.25284C31.8049 6.25284 31.4635 6.33404 31.1719 6.49645C30.8835 6.65554 30.6598 6.87926 30.5007 7.16761C30.3449 7.45597 30.267 7.79403 30.267 8.18182H29.0938C29.0938 7.58523 29.2313 7.06155 29.5064 6.6108C29.7815 6.16004 30.156 5.80871 30.63 5.55682C31.1072 5.30492 31.6425 5.17898 32.2358 5.17898C32.8324 5.17898 33.361 5.30492 33.8217 5.55682C34.2824 5.80871 34.6437 6.14844 34.9055 6.57599C35.1674 7.00355 35.2983 7.47917 35.2983 8.00284C35.2983 8.37737 35.2304 8.74361 35.0945 9.10156C34.9619 9.4562 34.7299 9.85227 34.3984 10.2898C34.0703 10.724 33.6146 11.2543 33.0312 11.8807L30.7443 14.3267V14.4062H35.4773V15.5H29.054ZM40.8516 15.6392C40.1025 15.6392 39.4645 15.4354 38.9375 15.0277C38.4105 14.6167 38.0078 14.0218 37.7294 13.2429C37.451 12.4607 37.3118 11.5161 37.3118 10.4091C37.3118 9.30871 37.451 8.36908 37.7294 7.5902C38.0111 6.808 38.4155 6.21141 38.9425 5.80043C39.4728 5.38613 40.1091 5.17898 40.8516 5.17898C41.594 5.17898 42.2287 5.38613 42.7557 5.80043C43.286 6.21141 43.6903 6.808 43.9688 7.5902C44.2505 8.36908 44.3913 9.30871 44.3913 10.4091C44.3913 11.5161 44.2521 12.4607 43.9737 13.2429C43.6953 14.0218 43.2926 14.6167 42.7656 15.0277C42.2386 15.4354 41.6006 15.6392 40.8516 15.6392ZM40.8516 14.5455C41.594 14.5455 42.1707 14.1875 42.5817 13.4716C42.9927 12.7557 43.1982 11.7348 43.1982 10.4091C43.1982 9.52746 43.1037 8.77675 42.9148 8.15696C42.7292 7.53717 42.4607 7.06487 42.1094 6.74006C41.7614 6.41525 41.3421 6.25284 40.8516 6.25284C40.1158 6.25284 39.5407 6.61577 39.1264 7.34162C38.7121 8.06416 38.505 9.08665 38.505 10.4091C38.505 11.2907 38.5978 12.0398 38.7834 12.6562C38.969 13.2727 39.2358 13.7417 39.5838 14.0632C39.9351 14.3847 40.3577 14.5455 40.8516 14.5455ZM46.2805 15.5V14.6051L49.6413 10.9261C50.0357 10.4953 50.3606 10.1207 50.6158 9.80256C50.871 9.48106 51.0599 9.17945 51.1825 8.89773C51.3085 8.61269 51.3714 8.31439 51.3714 8.00284C51.3714 7.64489 51.2853 7.33499 51.1129 7.07315C50.9439 6.81132 50.7119 6.60914 50.4169 6.46662C50.1219 6.3241 49.7905 6.25284 49.4226 6.25284C49.0315 6.25284 48.6901 6.33404 48.3984 6.49645C48.1101 6.65554 47.8864 6.87926 47.7273 7.16761C47.5715 7.45597 47.4936 7.79403 47.4936 8.18182H46.3203C46.3203 7.58523 46.4579 7.06155 46.733 6.6108C47.008 6.16004 47.3826 5.80871 47.8565 5.55682C48.3338 5.30492 48.8691 5.17898 49.4624 5.17898C50.0589 5.17898 50.5876 5.30492 51.0483 5.55682C51.509 5.80871 51.8703 6.14844 52.1321 6.57599C52.3939 7.00355 52.5249 7.47917 52.5249 8.00284C52.5249 8.37737 52.4569 8.74361 52.321 9.10156C52.1884 9.4562 51.9564 9.85227 51.625 10.2898C51.2969 10.724 50.8411 11.2543 50.2578 11.8807L47.9709 14.3267V14.4062H52.7038V15.5H46.2805ZM54.7571 15.5V14.6051L58.1179 10.9261C58.5123 10.4953 58.8371 10.1207 59.0923 9.80256C59.3475 9.48106 59.5365 9.17945 59.6591 8.89773C59.785 8.61269 59.848 8.31439 59.848 8.00284C59.848 7.64489 59.7618 7.33499 59.5895 7.07315C59.4205 6.81132 59.1884 6.60914 58.8935 6.46662C58.5985 6.3241 58.267 6.25284 57.8991 6.25284C57.508 6.25284 57.1667 6.33404 56.875 6.49645C56.5866 6.65554 56.3629 6.87926 56.2038 7.16761C56.0481 7.45597 55.9702 7.79403 55.9702 8.18182H54.7969C54.7969 7.58523 54.9344 7.06155 55.2095 6.6108C55.4846 6.16004 55.8591 5.80871 56.3331 5.55682C56.8104 5.30492 57.3456 5.17898 57.9389 5.17898C58.5355 5.17898 59.0642 5.30492 59.5249 5.55682C59.9856 5.80871 60.3468 6.14844 60.6087 6.57599C60.8705 7.00355 61.0014 7.47917 61.0014 8.00284C61.0014 8.37737 60.9335 8.74361 60.7976 9.10156C60.665 9.4562 60.433 9.85227 60.1016 10.2898C59.7734 10.724 59.3177 11.2543 58.7344 11.8807L56.4474 14.3267V14.4062H61.1804V15.5H54.7571Z" fill="#FDFDFD"/>
</svg>
