<svg width="169" height="70" viewBox="0 0 169 70" fill="none" xmlns="http://www.w3.org/2000/svg">
<path fill-rule="evenodd" clip-rule="evenodd" d="M82.7078 0.126902C81.1305 0.579616 80.5241 1.51693 81.2565 2.37033C82.238 3.51409 84.8964 3.75429 86.5265 2.84651C87.8064 2.13385 87.5406 0.8915 85.9762 0.274776C85.2422 -0.0145154 83.4787 -0.0943207 82.7078 0.126902ZM93.5331 2.53923C92.834 2.96935 93.0207 3.93581 93.9895 4.90275C94.7058 5.61767 95.6324 6.07918 96.4461 6.12622C97.0171 6.15918 97.1133 6.13737 97.3624 5.9182C97.9148 5.43204 97.6339 4.50872 96.6501 3.57688C95.889 2.8558 95.1506 2.4961 94.3456 2.45404C93.9748 2.43468 93.6472 2.46901 93.5331 2.53923ZM73.8336 2.69747C72.8061 3.07204 71.7699 3.96867 71.3993 4.80407C71.178 5.30275 71.1708 5.48192 71.3573 5.85082C71.7896 6.70637 73.6956 6.25649 74.9121 5.0118C75.7563 4.14823 76.0005 3.35869 75.5787 2.85708C75.2848 2.50754 74.5412 2.43947 73.8336 2.69747ZM77.8088 4.01346C76.9449 4.3227 76.33 4.71175 75.6449 5.38265C73.5179 7.46588 74.0701 10.2538 76.6088 10.2494C77.9159 10.2471 79.0766 9.72887 80.1109 8.68574C80.9826 7.80652 81.3844 6.96221 81.3897 5.9986C81.3929 5.3851 81.3572 5.23654 81.1058 4.8205C80.705 4.15703 80.1133 3.85375 79.1496 3.81786C78.5971 3.79732 78.2859 3.8427 77.8088 4.01346ZM88.7282 3.90559C88.2756 4.03918 87.5999 4.74392 87.4737 5.21385C87.3256 5.76554 87.3416 6.13815 87.5419 6.79439C87.9636 8.17669 89.1178 9.34628 90.6654 9.95967C91.4714 10.2791 92.7907 10.2946 93.3419 9.99107C94.1212 9.56202 94.4412 8.98804 94.4412 8.01913C94.4412 7.43684 94.3928 7.24397 94.0934 6.63155C93.2728 4.95341 91.4874 3.78412 89.7769 3.80456C89.3718 3.80945 88.8999 3.85493 88.7282 3.90559ZM69.1578 7.05728C68.1661 7.52984 67.1322 9.07244 67.041 10.2157C66.9343 11.5527 67.9039 11.9018 69.0805 10.95C70.1699 10.0687 70.9178 8.42314 70.6478 7.50129C70.4453 6.80945 69.9732 6.66882 69.1578 7.05728ZM98.7247 7.22207C98.4489 7.50422 98.4365 7.55126 98.4713 8.18207C98.5197 9.05953 98.9547 9.97425 99.6727 10.7089C100.576 11.633 101.311 11.8432 101.82 11.3227C102.092 11.0439 102.108 10.9883 102.072 10.4181C101.996 9.20036 100.988 7.66148 99.9375 7.15674C99.306 6.85346 99.0727 6.86598 98.7247 7.22207ZM83.2574 8.17855C80.4904 8.9186 79.0893 12.0424 80.3355 14.6934C81.1055 16.3312 82.6132 17.2985 84.4006 17.3014C86.1109 17.3042 87.4779 16.5127 88.3595 15.0092C89.3903 13.2513 89.1168 10.9938 87.6873 9.4605C86.5326 8.22187 84.8818 7.74412 83.2574 8.17855ZM71.8458 10.0613C71.1576 10.2352 70.3648 10.7518 69.7307 11.4396C68.1528 13.1509 67.7939 15.4148 68.9061 16.6407C69.659 17.4704 70.9713 17.4567 72.2674 16.6057C73.1889 16.0007 74.1707 14.6067 74.461 13.4911C74.7225 12.4864 74.5174 11.1896 74.0056 10.6104C73.5837 10.1333 72.5756 9.87684 71.8458 10.0613ZM95.8586 10.304C95.294 10.4855 94.6992 11.1471 94.5479 11.7616C94.0306 13.8635 95.6475 16.6103 97.8147 17.3116C98.7106 17.6014 99.692 17.4055 100.195 16.8362C100.732 16.2289 100.906 14.9387 100.598 13.8625C99.9272 11.5275 97.5666 9.75498 95.8586 10.304ZM76.1838 15.7263C74.2211 16.1029 72.7669 17.6124 72.4379 19.6148C71.9386 22.654 74.674 25.4571 77.6327 24.9381C80.6874 24.4021 82.3454 21.1615 81.0194 18.319C80.6322 17.4891 80.1774 16.9376 79.5015 16.4786C78.5766 15.8504 77.1835 15.5345 76.1838 15.7263ZM90.9151 15.9797C89.1809 16.4569 87.8417 17.9744 87.5594 19.7823C87.2828 21.5543 88.1336 23.4592 89.6389 24.4384C90.407 24.9379 91.247 25.1443 92.3303 25.0998C93.188 25.0646 93.3319 25.029 94.0217 24.6812C96.9286 23.2154 97.5116 19.3636 95.1664 17.119C93.9786 15.9822 92.4221 15.5651 90.9151 15.9797ZM65.3764 17.1889C65.1791 17.4011 64.9185 17.8302 64.7972 18.1425C64.6067 18.6325 64.5765 18.8841 64.5759 19.9816C64.5753 21.0496 64.6086 21.3446 64.7839 21.8256C65.8313 24.6998 68.0463 23.1648 67.8419 19.7062C67.7736 18.5501 67.4984 17.7756 66.9579 17.2188C66.6085 16.8586 66.4999 16.8031 66.1449 16.8031C65.7921 16.8031 65.6852 16.8568 65.3764 17.1889ZM102.215 17.6775C100.545 18.7195 100.913 23.712 102.681 24.0056C104.59 24.3225 105.188 19.2635 103.421 17.7425C103.064 17.4354 102.64 17.4126 102.215 17.6775ZM69.4381 23.5346C68.9689 23.7601 68.5078 24.3074 68.3591 24.815C67.6758 27.1485 69.8712 30.4224 72.2221 30.5755C73.5775 30.6638 74.4246 29.8989 74.5354 28.4865C74.7188 26.1481 72.6256 23.5207 70.4733 23.3876C69.976 23.3568 69.7375 23.3907 69.4381 23.5346ZM83.5681 23.5956C81.9373 23.975 80.5847 25.3345 80.1537 27.0273C79.7474 28.623 80.2579 30.3854 81.4545 31.5188C83.0626 33.0421 85.3188 33.2358 87.1297 32.006C89.3541 30.4953 89.7755 27.1358 88.002 25.053C86.9645 23.8347 85.1309 23.232 83.5681 23.5956ZM97.8346 23.6832C96.4013 24.1676 95.1927 25.4284 94.6604 26.9946C94.173 28.4284 94.4518 29.8824 95.3278 30.4756C95.6752 30.7108 95.8069 30.7395 96.5371 30.7395C97.6258 30.7395 98.2348 30.4472 99.1813 29.4701C100.605 28.0001 101.127 26.0039 100.442 24.6431C100.003 23.7689 98.8435 23.3423 97.8346 23.6832ZM67.2083 29.4093C66.1967 30.4443 68.1228 33.8061 69.7342 33.8181C70.4091 33.8231 70.7433 33.1841 70.5462 32.2655C70.3095 31.162 69.3912 29.8652 68.5273 29.4143C68.0527 29.1665 67.4477 29.1643 67.2083 29.4093ZM100.409 29.5063C98.8702 30.2215 97.6329 33.2649 98.6538 33.8239C99.6174 34.3516 101.282 32.945 101.816 31.1525C102.24 29.7254 101.586 28.9594 100.409 29.5063ZM91.6691 30.59C89.2579 31.0384 87.1542 33.5861 87.6481 35.4596C87.7808 35.9627 88.2236 36.5025 88.7136 36.7582C90.5218 37.7021 93.6697 36.0466 94.4945 33.7182C94.8401 32.7428 94.6191 31.5887 93.9898 31.0822C93.4242 30.627 92.5114 30.4333 91.6691 30.59ZM75.8503 30.7494C75.3673 30.9303 74.7854 31.5071 74.6442 31.9449C74.4512 32.543 74.5817 33.6043 74.9304 34.2736C75.5177 35.401 76.7208 36.4122 78 36.8536C78.803 37.1306 79.9411 37.0943 80.5514 36.772C82.8205 35.574 81.1855 31.7042 78.0065 30.7488C77.3699 30.5575 76.3621 30.5577 75.8503 30.7494ZM95.6415 34.7484C94.244 35.3361 93.1985 36.4769 93.1985 37.4139C93.1985 38.7079 95.3803 38.4731 96.8273 37.0236C97.5566 36.2929 97.8542 35.6124 97.6749 35.086C97.4683 34.4794 96.6171 34.3381 95.6415 34.7484ZM71.9779 34.6659C70.7542 35.1731 71.6045 37.0482 73.4907 38.0019C74.0845 38.3023 74.3107 38.365 74.8055 38.3662C75.3078 38.3676 75.4426 38.3301 75.6502 38.1308C76.3707 37.4389 75.4366 35.8418 73.8375 35.0317C73.1798 34.6984 72.3115 34.5276 71.9779 34.6659ZM83.3552 37.5898C80.5709 38.386 81.3648 40.6133 84.5108 40.8318C86.4529 40.9667 88.0368 40.1991 88.0368 39.123C88.0368 38.6507 87.4223 38.0343 86.6507 37.7324C85.8998 37.4387 84.1489 37.3629 83.3552 37.5898ZM124.162 47.9936C123.85 48.3123 123.815 48.5618 124.022 48.9721C124.173 49.2699 124.342 49.3704 124.695 49.3704C124.818 49.3704 124.988 49.343 125.073 49.3096C125.262 49.2354 125.507 48.771 125.507 48.4875C125.507 48.1918 125.003 47.7078 124.695 47.7078C124.542 47.7078 124.33 47.8213 124.162 47.9936ZM59.3092 48.4085C57.808 48.5362 56.6524 49.0971 55.5278 50.2438C54.3238 51.4714 53.7206 52.9754 53.7206 54.7493C53.7206 56.3905 54.1842 57.6406 55.202 58.7445C56.3737 60.015 57.7634 60.6099 59.7426 60.6879C61.0295 60.7388 61.799 60.616 62.7124 60.214L63.1838 60.0065V58.6109C63.1838 57.474 63.1578 57.2051 63.0435 57.1602C62.8663 57.0906 62.9 57.0181 62.4209 58.4999C62.029 59.7119 62.0023 59.7619 61.6672 59.9055C61.1843 60.1126 59.8757 60.1803 59.1492 60.0357C56.6668 59.5418 55.0162 57.1551 55.1885 54.3087C55.3487 51.6613 56.7445 49.6869 58.853 49.1251C59.5637 48.9356 60.6895 48.939 61.3636 49.1325L61.898 49.286L62.3614 50.5995C62.7355 51.6601 62.8599 51.9132 63.0069 51.9132C63.1789 51.9132 63.1875 51.8334 63.1625 50.4706L63.136 49.0281L62.3432 48.7561C61.4109 48.4363 60.3765 48.3177 59.3092 48.4085ZM95.198 48.3944C93.1217 48.653 91.9575 50.4076 92.6343 52.2584C92.8965 52.9755 93.7018 53.8548 94.8379 54.6645C96.5366 55.875 97.0735 56.3564 97.3434 56.9106C97.6181 57.4745 97.6512 57.8168 97.4889 58.415C97.1918 59.5095 96.2737 60.1742 95.0659 60.1688C94.696 60.1672 94.1693 60.1094 93.8955 60.0405L93.3975 59.9151L92.9411 58.5031C92.5997 57.4467 92.4483 57.0982 92.3398 57.1194C92.2198 57.143 92.1903 57.3893 92.1683 58.5514C92.1507 59.4812 92.1777 59.9994 92.2487 60.0869C92.3076 60.1594 92.5991 60.3179 92.8966 60.439C93.3688 60.6314 93.6141 60.6598 94.8282 60.6628L96.2189 60.6662L96.9475 60.2979C97.929 59.8019 98.4798 59.1777 98.7555 58.2492C99.1007 57.0863 98.8623 56.2245 97.9608 55.3765C97.7336 55.1628 97.0132 54.6153 96.3598 54.1596C94.3678 52.7706 93.7749 52.0025 93.773 50.808C93.7719 50.1508 93.9183 49.8103 94.3803 49.3952C94.8496 48.9736 95.3038 48.8457 96.1059 48.9091C97.2173 48.9971 97.2308 49.0085 97.6467 50.2187C97.8469 50.801 98.045 51.3757 98.0868 51.4957C98.1365 51.6379 98.214 51.6938 98.3094 51.6563C98.4316 51.6084 98.4559 51.3657 98.4559 50.195V48.7911L97.9651 48.6421C97.6952 48.56 97.1898 48.4683 96.842 48.4381C96.4941 48.408 96.102 48.3709 95.9706 48.3557C95.8392 48.3404 95.4914 48.3578 95.198 48.3944ZM27.3382 48.6701C27.3382 48.8163 27.495 48.8865 28.1746 49.0443L29.011 49.2386L29.0358 54.5327L29.0604 59.8269L28.7012 59.9233C28.5036 59.9763 28.1054 60.0799 27.8164 60.1535C27.4677 60.2422 27.2803 60.3427 27.2597 60.4522C27.231 60.605 27.5257 60.6173 31.2158 60.6173H35.2029L35.1335 58.9303C35.0952 58.0025 35.0481 57.2268 35.0288 57.2067C34.8686 57.0404 34.6982 57.4276 34.462 58.4947L34.1917 59.7167L32.844 59.7782C32.1027 59.812 31.2167 59.8641 30.875 59.8937L30.2537 59.9477L30.2872 57.2751C30.3057 55.8053 30.335 54.5873 30.3524 54.5685C30.3699 54.5497 31.0861 54.5717 31.9439 54.6174L33.5037 54.7004L33.6342 55.2628C33.7304 55.6777 33.8077 55.8251 33.929 55.8251C34.0696 55.8251 34.1099 55.6504 34.206 54.6271C34.3588 52.9984 34.3546 52.8912 34.1377 52.8912C34.0138 52.8912 33.8986 53.0406 33.7607 53.3801L33.5621 53.8691H32.3753C31.7225 53.8691 30.9888 53.8971 30.745 53.9313L30.3015 53.9935V51.5715V49.1495L30.9467 49.2094C31.3015 49.2423 32.0723 49.298 32.6596 49.3332L33.7273 49.3972L33.9869 50.4677C34.2126 51.3987 34.3953 51.7669 34.552 51.6067C34.5721 51.5862 34.6194 50.8766 34.6572 50.0298L34.7261 48.4902H31.0321C27.5091 48.4902 27.3382 48.4985 27.3382 48.6701ZM47.3959 53.0204C46.0451 53.6026 45.3304 54.7454 45.2368 56.4731C45.1846 57.4366 45.3025 58.1567 45.6175 58.7975C45.9066 59.3858 46.6155 60.098 47.2086 60.3961C47.6921 60.639 47.8475 60.6662 48.75 60.6662C49.638 60.6662 49.8165 60.6361 50.2981 60.4051C53.0199 59.0998 53.055 54.5465 50.3544 53.12C49.9233 52.8923 49.7091 52.8484 48.8934 52.8202C48.0567 52.7912 47.8699 52.8161 47.3959 53.0204ZM67.7074 52.9287C66.0569 53.4791 65.0616 55.3765 65.3498 57.4233C65.5431 58.7966 66.1492 59.7393 67.2207 60.3338C67.7988 60.6545 67.8568 60.6662 68.8713 60.6662C69.8679 60.6662 69.9532 60.65 70.5063 60.3541C71.6948 59.7185 72.3472 58.6203 72.434 57.1091C72.5387 55.288 71.7961 53.782 70.4653 53.1158C70.0134 52.8896 69.786 52.8434 69.0179 52.8215C68.4417 52.8052 67.9599 52.8446 67.7074 52.9287ZM74.75 53.0802C73.9287 53.3204 73.8419 53.368 73.8419 53.5794C73.8419 53.7841 73.9221 53.8366 74.4871 54.0019L75.1324 54.1906V57.0032V59.8159L74.4723 60.021C74.1093 60.1338 73.7652 60.2261 73.7076 60.2261C73.6501 60.2261 73.6029 60.3141 73.6029 60.4217C73.6029 60.611 73.6667 60.6173 75.5523 60.6173C77.2141 60.6173 77.5099 60.5952 77.5577 60.4677C77.6176 60.3078 77.502 60.2409 76.7574 60.0043L76.3272 59.8676L76.3017 57.403L76.2762 54.9385L76.5406 54.6968C76.6861 54.5639 77.1156 54.2953 77.4951 54.1C78.0618 53.8081 78.2544 53.7542 78.5741 53.7981C79.6861 53.9507 79.9034 54.6348 79.9088 58.0006L79.9118 59.8337L79.1949 60.0495C78.6424 60.2158 78.4779 60.3061 78.4779 60.4433C78.4779 60.6105 78.5958 60.6198 80.4124 60.5949C82.0934 60.5718 82.3506 60.548 82.376 60.4125C82.3979 60.2959 82.2419 60.2089 81.756 60.0668L81.1066 59.8771L81.0506 57.4843L80.9947 55.0916L81.3767 54.7331C81.8941 54.2475 82.8206 53.7713 83.2468 53.7717C83.6765 53.7721 84.1587 54.0642 84.3478 54.4385C84.5935 54.9246 84.6897 55.8976 84.6904 57.9028L84.6912 59.8337L83.9743 60.0495C83.4258 60.2146 83.2574 60.3067 83.2574 60.4413C83.2574 60.605 83.3934 60.6173 85.2067 60.6173C86.8726 60.6173 87.1642 60.5954 87.2124 60.4669C87.2741 60.3025 87.2485 60.2882 86.434 60.0306L85.886 59.8573L85.8284 57.3767C85.7644 54.625 85.69 54.2009 85.1547 53.5387C84.6028 52.8557 83.5478 52.5878 82.8463 52.9524C82.4592 53.1536 81.3472 53.9884 81.112 54.2544C80.8719 54.5258 80.8303 54.5119 80.6895 54.1136C80.4055 53.31 79.6757 52.7993 78.8059 52.7955C78.2308 52.793 77.5021 53.2015 76.5543 54.0577L75.9667 54.5887L76.0347 53.911C76.0721 53.5384 76.1256 53.1344 76.1536 53.0134C76.1978 52.8228 76.168 52.7948 75.9313 52.804C75.781 52.81 75.2494 52.9342 74.75 53.0802ZM102.514 52.923C101.337 53.387 100.568 54.5466 100.369 56.16C100.155 57.8799 100.743 59.4164 101.906 60.1797C102.973 60.8793 104.749 60.8917 106.082 60.2087C106.582 59.9524 106.639 59.8564 106.452 59.5944C106.324 59.4154 106.314 59.4158 106.045 59.6083C105.518 59.9847 104.851 60.1741 104.048 60.1758C103.385 60.177 103.224 60.1416 102.837 59.9092C102.13 59.4836 101.746 58.6836 101.641 57.418L101.582 56.7053H103.886H106.19L106.253 56.3624C106.398 55.5709 106.022 54.4069 105.391 53.6918C104.863 53.094 104.198 52.7917 103.432 52.8008C103.087 52.8049 102.674 52.8599 102.514 52.923ZM108.875 53.0802C108.053 53.3206 107.967 53.3678 107.967 53.5801C107.967 53.7829 108.047 53.839 108.564 53.997L109.162 54.1796V57.0067V59.8337L108.445 60.0495C107.896 60.2146 107.728 60.3067 107.728 60.4413C107.728 60.6059 107.877 60.6173 110.022 60.6173C112.161 60.6173 112.316 60.6055 112.316 60.4426C112.316 60.3006 112.151 60.234 111.432 60.0865C110.946 59.9866 110.494 59.8845 110.428 59.8595C110.338 59.8249 110.309 59.2783 110.309 57.5829V55.3518L110.906 54.8008C111.562 54.1958 112.264 53.7269 112.393 53.8081C112.438 53.8367 112.62 54.2582 112.798 54.7448C113.03 55.3801 113.166 55.6295 113.282 55.6295C113.414 55.6295 113.455 55.4967 113.504 54.9205C113.537 54.5306 113.588 53.9651 113.617 53.664C113.679 53.0173 113.532 52.7934 113.045 52.7934C112.675 52.7934 111.827 53.2939 111.091 53.9467C110.806 54.1999 110.442 54.5141 110.284 54.645L109.995 54.8829L110.054 54.4494C110.086 54.211 110.141 53.7408 110.175 53.4046C110.237 52.8062 110.233 52.7936 110.01 52.804C109.885 52.81 109.374 52.9342 108.875 53.0802ZM124.121 53.031C123.648 53.15 123.143 53.278 122.998 53.3156C122.526 53.4383 122.701 53.6295 123.452 53.8107L124.169 53.9837V56.8986V59.8135L123.429 60.0471C122.922 60.2071 122.679 60.3337 122.657 60.449C122.628 60.6039 122.786 60.6173 124.64 60.6173C126.537 60.6173 126.654 60.6068 126.654 60.4363C126.654 60.2974 126.504 60.2094 126.009 60.0585L125.364 59.8618L125.339 56.3275C125.316 53.0416 125.302 52.7941 125.148 52.804C125.056 52.81 124.594 52.9121 124.121 53.031ZM130.499 53.0317C129.01 53.5976 128.121 54.7 127.907 56.2436C127.65 58.0974 128.432 59.6619 129.989 60.4085C130.477 60.6427 130.631 60.666 131.673 60.664C132.639 60.6621 132.903 60.6272 133.346 60.4418C134.131 60.1134 134.266 59.9857 134.122 59.7099L134.004 59.4849L133.364 59.8075C131.673 60.6602 130.043 60.1223 129.42 58.5055C129.236 58.0282 129.196 57.7409 129.192 56.852C129.188 55.8884 129.214 55.7189 129.439 55.2266C129.961 54.0881 130.912 53.3606 131.902 53.3413L132.418 53.3312L132.77 54.407C132.982 55.0549 133.178 55.4939 133.262 55.5105C133.362 55.5305 133.488 55.2463 133.715 54.4894L134.028 53.4405L133.807 53.2639C133.165 52.7536 131.532 52.639 130.499 53.0317ZM137.695 52.8947C136.158 53.4047 135.147 55.7797 135.58 57.8651C135.827 59.0578 136.442 59.8913 137.446 60.3951C138.408 60.8782 140.079 60.8086 141.191 60.2391C141.748 59.9538 141.81 59.8654 141.625 59.6157C141.506 59.4561 141.466 59.4637 140.984 59.7331C140.378 60.072 139.375 60.2791 138.784 60.1875C137.572 59.9998 136.787 58.7971 136.787 57.1291V56.7053H139.069H141.351L141.41 56.3247C141.531 55.5493 141.175 54.395 140.611 53.7382C140.077 53.1157 139.546 52.8616 138.71 52.8284C138.309 52.8125 137.853 52.8424 137.695 52.8947ZM36.3851 53.0364C36.3231 53.2017 36.4544 53.2854 37.136 53.5151L37.614 53.6762L38.8143 57.1224L40.0145 60.5684L40.5406 60.5972L41.0667 60.6259L42.1124 57.2317C42.6875 55.3648 43.2132 53.7803 43.2804 53.7106C43.3477 53.6409 43.638 53.5081 43.9257 53.4153C44.3069 53.2923 44.4485 53.1984 44.4485 53.0689C44.4485 52.9048 44.3352 52.8912 42.9669 52.8912C41.5915 52.8912 41.4853 52.9041 41.4853 53.0713C41.4853 53.2067 41.629 53.2958 42.0634 53.4304C42.3813 53.529 42.6604 53.6409 42.6835 53.6791C42.7066 53.7174 42.3885 54.8209 41.9767 56.1316C41.5649 57.4423 41.1466 58.8117 41.0471 59.1748C40.9477 59.5378 40.8434 59.8349 40.8153 59.8349C40.7873 59.8349 40.662 59.4278 40.5369 58.9303C40.4117 58.4328 39.9728 57.0601 39.5614 55.8798C39.15 54.6997 38.8279 53.7191 38.8458 53.7009C38.8637 53.6827 39.1313 53.5674 39.4408 53.4448C39.7761 53.3119 40.0158 53.1551 40.0344 53.0565C40.0628 52.9059 39.9036 52.8912 38.2525 52.8912C36.7374 52.8912 36.4306 52.915 36.3851 53.0364ZM114.037 53.0687C114.037 53.1986 114.201 53.3054 114.649 53.4674L115.262 53.6887L115.712 54.9769C115.96 55.6855 116.507 57.2465 116.928 58.4458L117.694 60.6263L118.217 60.5974L118.74 60.5684L119.805 57.1256L120.871 53.6828L121.445 53.4695C121.981 53.2702 122.157 53.1455 122.16 52.9621C122.161 52.9203 121.485 52.8983 120.657 52.9132C119.376 52.936 119.149 52.9629 119.124 53.0945C119.103 53.2074 119.253 53.298 119.683 53.4309C120.006 53.5311 120.29 53.6657 120.314 53.7302C120.338 53.7947 120.013 54.9416 119.592 56.2789C119.17 57.6161 118.754 58.9705 118.666 59.2886C118.481 59.9593 118.452 59.9297 118.149 58.7591C118.031 58.3019 117.615 57.007 117.224 55.8814C116.834 54.7559 116.532 53.7877 116.554 53.7298C116.576 53.672 116.835 53.5404 117.131 53.4377C117.523 53.3013 117.669 53.2019 117.669 53.0709C117.669 52.9028 117.552 52.8912 115.853 52.8912C114.162 52.8912 114.037 52.9034 114.037 53.0687ZM104.007 53.4069C104.608 53.8213 104.956 54.6327 104.956 55.6217V55.9955L104.406 56.0537C104.104 56.0858 103.35 56.1415 102.73 56.1777L101.604 56.2433L101.662 55.8142C101.768 55.0332 102.086 54.0824 102.347 53.7649C102.831 53.1769 103.473 53.0384 104.007 53.4069ZM139.186 53.4046C139.635 53.7084 140.025 54.5397 140.099 55.3486L140.157 55.9911L139.547 56.0516C139.212 56.0848 138.45 56.1419 137.854 56.1786L136.771 56.2452L136.834 55.7663C137.102 53.7404 138.141 52.6966 139.186 53.4046ZM49.7528 53.5212C50.5499 53.9991 50.9586 54.9677 51.0223 56.5304C51.0579 57.4031 51.0312 57.6916 50.8626 58.2598C50.4888 59.519 49.7636 60.1772 48.75 60.1772C47.3102 60.1772 46.4994 58.9392 46.5083 56.7542C46.515 55.1045 46.9005 54.0909 47.7306 53.5401C48.2701 53.1822 49.1735 53.1738 49.7528 53.5212ZM70.0353 53.6299C70.56 54.0544 70.9961 54.9969 71.1338 56.004C71.4031 57.9732 70.6333 59.7877 69.3826 60.1323C68.2464 60.4453 67.2164 59.738 66.8087 58.3647C66.6317 57.7685 66.6085 57.5044 66.6474 56.5268C66.6992 55.2208 66.9075 54.5177 67.4152 53.9337C67.8883 53.3896 68.1906 53.2682 68.9838 53.3037C69.5786 53.3303 69.7184 53.3737 70.0353 53.6299ZM17.9706 67.3704C17.9706 69.0244 17.9993 69.4857 18.1165 69.7176C18.2835 70.0481 18.2671 70.0419 18.5834 69.8945C18.8035 69.7918 18.8116 69.7665 18.6835 69.5793C18.5722 69.4168 18.5441 68.9655 18.5441 67.3437V65.3117H18.2574H17.9706V67.3704ZM54.7582 65.4188C53.7118 65.5361 53.3245 66.1125 53.3202 67.5585C53.3157 69.0812 53.6527 69.6933 54.617 69.9142C55.1611 70.0387 56.351 69.9659 56.45 69.802C56.4802 69.7519 56.4764 69.6187 56.4414 69.5058C56.3826 69.3165 56.3319 69.3058 55.7765 69.3667C54.9544 69.4567 54.4346 69.3037 54.1945 68.9008C54.0455 68.6508 54.008 68.4078 54.0077 67.6897C54.0072 66.2381 54.2082 65.9791 55.3354 65.9791C55.7021 65.9791 56.086 66.0063 56.1885 66.0395C56.3335 66.0867 56.3889 66.0426 56.4384 65.8411C56.4733 65.6986 56.4812 65.5608 56.4557 65.5348C56.3583 65.4351 55.2736 65.3611 54.7582 65.4188ZM135.49 65.4193C135.223 65.4536 134.914 65.5312 134.804 65.5917C134.16 65.9444 133.986 66.9163 134.469 67.4663C134.688 67.7156 134.852 67.7872 135.451 67.8931C136.323 68.0472 136.574 68.1738 136.654 68.5003C136.82 69.176 136.186 69.5192 135.065 69.3607C134.415 69.2687 134.406 69.2704 134.349 69.5053C134.274 69.8116 134.392 69.8817 135.121 69.9616C135.9 70.0469 136.699 69.8731 137.016 69.5498C137.487 69.0674 137.463 68.1401 136.967 67.7137C136.807 67.576 136.648 67.463 136.612 67.4625C136.273 67.4587 135.259 67.2261 135.09 67.1132C134.777 66.9046 134.792 66.3501 135.116 66.1329C135.336 65.9852 136.194 65.9328 136.93 66.022C137.074 66.0394 137.129 65.9797 137.151 65.7818C137.177 65.5506 137.142 65.5123 136.864 65.4682C136.229 65.3674 135.965 65.3581 135.49 65.4193ZM32.9779 65.6901C32.9779 65.8898 33.0345 66.0015 33.1556 66.0408C33.4566 66.1386 33.6604 65.998 33.6283 65.7148C33.6045 65.5046 33.5433 65.4529 33.2886 65.4278C33.0006 65.3993 32.9779 65.4185 32.9779 65.6901ZM93.5809 65.6901C93.5809 65.8898 93.6375 66.0015 93.7586 66.0408C94.0596 66.1386 94.2634 65.998 94.2313 65.7148C94.2075 65.5046 94.1463 65.4529 93.8915 65.4278C93.6035 65.3993 93.5809 65.4185 93.5809 65.6901ZM113.875 65.5695C113.788 65.8017 113.974 66.0452 114.238 66.0452C114.426 66.0452 114.472 65.9888 114.497 65.7274C114.525 65.4306 114.507 65.4095 114.231 65.4095C114.045 65.4095 113.913 65.4691 113.875 65.5695ZM156.956 65.6901C156.956 66.0258 157.252 66.1911 157.491 65.9885C157.742 65.7751 157.617 65.4623 157.267 65.4278C156.979 65.3993 156.956 65.4185 156.956 65.6901ZM0 67.7078V69.9083H1.53572H3.07154L3.04123 69.6393L3.01103 69.3704L1.79228 69.343L0.573529 69.3156V68.5851V67.8545H1.43382H2.29412V67.5611V67.2677H1.43382H0.573529V66.632V65.9963H1.81618H3.05882V65.7518V65.5073H1.52941H0V67.7078ZM28.4614 65.9389C28.2464 66.0167 28.1985 66.0929 28.1985 66.3575C28.1985 66.6517 28.1726 66.6809 27.9118 66.6809C27.6717 66.6809 27.625 66.7196 27.625 66.9189C27.625 67.1058 27.6814 67.1635 27.8879 67.1879L28.1507 67.2188L28.1985 68.4249C28.2406 69.4856 28.2694 69.6481 28.4375 69.7739C28.7187 69.9841 29.0087 70.036 29.4902 69.9621C29.8635 69.9049 29.9191 69.8654 29.9191 69.6578C29.9191 69.4381 29.8829 69.4193 29.4603 69.4193C29.2079 69.4193 28.9499 69.3665 28.8868 69.3019C28.8124 69.2258 28.7721 68.8303 28.7721 68.1772V67.1699H29.2978C29.7949 67.1699 29.8235 67.1566 29.8235 66.9254C29.8235 66.6945 29.7945 66.6809 29.3031 66.6809H28.7826L28.7534 66.2623C28.7248 65.8514 28.7195 65.8455 28.4614 65.9389ZM109.329 65.9588C109.132 66.0647 109.066 66.1735 109.066 66.3906C109.066 66.6479 109.034 66.6809 108.779 66.6809C108.537 66.6809 108.493 66.7189 108.493 66.9254C108.493 67.1303 108.538 67.1699 108.771 67.1699H109.05L109.082 68.341C109.111 69.4066 109.134 69.5322 109.332 69.7347C109.514 69.9203 109.651 69.9569 110.162 69.9554C110.499 69.9544 110.797 69.9305 110.825 69.9022C110.852 69.874 110.85 69.7538 110.82 69.635C110.772 69.45 110.699 69.4193 110.301 69.4193C109.7 69.4193 109.64 69.2997 109.64 68.1054V67.1699H110.213C110.761 67.1699 110.787 67.159 110.787 66.9254C110.787 66.692 110.761 66.6809 110.218 66.6809H109.65L109.621 66.2491L109.592 65.8172L109.329 65.9588ZM12.5591 66.6504C12.4481 66.6727 12.233 66.8236 12.0812 66.9855C11.8243 67.2598 11.8029 67.3423 11.7736 68.1786C11.745 68.9913 11.7636 69.1096 11.9682 69.4193C12.25 69.8456 12.7722 70.0434 13.4183 69.9685C14.307 69.8656 14.6251 69.4186 14.6248 68.2733C14.6247 67.4556 14.4204 66.9918 13.9559 66.7544C13.6452 66.5956 13.0512 66.5513 12.5591 66.6504ZM37.5972 66.7258C37.1522 66.9239 36.9735 67.2736 36.919 68.0535C36.8638 68.8427 37.0648 69.5306 37.4201 69.7688C37.7786 70.009 38.5558 70.0568 39.0384 69.8683C39.6132 69.6436 39.8053 69.2327 39.8016 68.2356C39.7982 67.3311 39.5917 66.8881 39.0909 66.7108C38.6473 66.5539 37.9683 66.5607 37.5972 66.7258ZM43.5882 66.7074L43.1581 66.8276L43.1318 68.3679L43.1054 69.9083H43.3919H43.6785L43.705 68.5635L43.7316 67.2188H44.3501C44.9138 67.2188 44.9793 67.2404 45.0895 67.4633C45.1653 67.6166 45.2109 68.1179 45.2118 68.808L45.2132 69.9083H45.5H45.7868L45.7862 68.808C45.7856 67.595 45.6895 67.0915 45.4085 66.8314C45.1701 66.6106 44.1767 66.543 43.5882 66.7074ZM60.2253 66.7056C59.724 66.891 59.518 67.3345 59.5146 68.2356C59.5109 69.1992 59.7046 69.6367 60.2299 69.8518C60.9828 70.16 61.8602 69.9714 62.1649 69.4358C62.405 69.0137 62.4813 67.9411 62.308 67.4238C62.1286 66.8881 61.7771 66.6513 61.106 66.6142C60.8031 66.5975 60.4067 66.6385 60.2253 66.7056ZM66.171 66.692L65.7647 66.7902V68.3493V69.9083H66.0515H66.3382V68.5391V67.1699H66.8492C67.6217 67.1699 67.6765 67.2725 67.6765 68.718V69.9083H67.9678H68.2592L68.2443 68.5635L68.2294 67.2188H68.8343C69.3836 67.2188 69.4503 67.2413 69.5601 67.4633C69.6359 67.6166 69.6815 68.1179 69.6824 68.808L69.6838 69.9083H69.9706H70.2574L70.2572 68.7102C70.257 66.8905 69.9991 66.5174 68.8235 66.6361C68.1054 66.7087 67.931 66.7094 67.1507 66.6429C66.8353 66.616 66.3943 66.6381 66.171 66.692ZM74.0809 66.7081L73.6507 66.8276L73.6245 68.3679L73.5981 69.9083H73.8845H74.1711L74.1977 68.5635L74.2243 67.2188L74.7653 67.1898C75.5409 67.1481 75.6103 67.2768 75.6103 68.7565V69.9083H75.9036H76.1969L76.1748 68.5635L76.1528 67.2188L76.7447 67.1895L77.3368 67.1604L77.4772 67.5043C77.5705 67.7329 77.6176 68.1935 77.6176 68.8783V69.9083H77.9044H78.1912L78.1889 68.8569C78.1862 67.6322 78.0914 67.1222 77.8131 66.8373C77.6109 66.6302 77.273 66.599 76.0404 66.6735C75.8301 66.6862 75.4 66.6723 75.0846 66.6427C74.7551 66.6117 74.328 66.6395 74.0809 66.7081ZM88.0368 66.7132L87.6066 66.8276L87.5803 68.3679L87.5539 69.9083H87.8404H88.127L88.1536 68.5635L88.1801 67.2188L88.7624 67.19C89.5718 67.1501 89.606 67.2085 89.6477 68.7008L89.6815 69.9083H89.9584H90.2353L90.2299 68.7591C90.227 68.1272 90.1732 67.456 90.1105 67.2677C89.9053 66.6524 89.0876 66.4338 88.0368 66.7132ZM98.4121 66.6544C97.8246 66.8072 97.4999 67.4005 97.5002 68.321C97.5003 68.9681 97.7057 69.4554 98.1044 69.7546C98.3143 69.9122 98.5162 69.9569 99.0125 69.9558C99.842 69.9541 100.007 69.887 99.9009 69.5942C99.8267 69.3893 99.7712 69.3731 99.2427 69.4032C98.9251 69.4214 98.5767 69.3876 98.4683 69.3282C98.0636 69.1066 97.9758 67.9274 98.3236 67.3836C98.4555 67.1774 98.5299 67.1592 99.1552 67.1806C99.826 67.2033 99.8426 67.1982 99.8709 66.9556C99.8954 66.7458 99.8528 66.6978 99.5961 66.6453C99.2573 66.576 98.6974 66.5803 98.4121 66.6544ZM103.379 66.6659C103.148 66.7232 103.097 66.7827 103.118 66.9718C103.132 67.101 103.155 67.2179 103.168 67.2317C103.182 67.2455 103.385 67.2124 103.62 67.1582C104.376 66.9843 104.956 67.2196 104.956 67.7001C104.956 67.9152 104.932 67.9215 104.263 67.8826C103.688 67.8491 103.518 67.8759 103.264 68.0392C102.879 68.2876 102.763 68.7898 102.958 69.3655C103.069 69.6941 103.157 69.7834 103.474 69.8924C103.888 70.0346 104.817 69.9947 105.279 69.8149L105.549 69.71L105.515 68.4422C105.483 67.2223 105.472 67.1643 105.228 66.9152C105.012 66.6942 104.879 66.6517 104.32 66.6254C103.96 66.6086 103.536 66.6268 103.379 66.6659ZM118.721 66.6469C118.028 66.8804 117.845 67.2125 117.84 68.2437C117.835 69.5274 118.2 69.9575 119.295 69.9568C120.362 69.9561 120.712 69.537 120.722 68.2457C120.729 67.4575 120.521 66.9907 120.059 66.7544C119.745 66.5942 119.044 66.5378 118.721 66.6469ZM124.528 66.698L124.074 66.7998V68.354V69.9083H124.36H124.647V68.5391V67.1699H125.206C126.033 67.1699 126.081 67.2553 126.081 68.718V69.9083H126.375H126.669L126.638 68.541C126.607 67.2044 126.601 67.1678 126.348 66.9094C126.135 66.6917 125.992 66.6408 125.535 66.6207C125.231 66.6072 124.777 66.642 124.528 66.698ZM141.327 66.7203C141.169 66.7915 140.963 66.9382 140.869 67.0464C140.496 67.4756 140.493 68.9819 140.866 69.4952C141.126 69.854 141.682 70.0366 142.299 69.9655C142.979 69.887 143.111 69.8216 143.077 69.5791C143.05 69.3864 142.999 69.3747 142.32 69.404C141.626 69.434 141.583 69.4233 141.388 69.1697C141.276 69.0235 141.184 68.7998 141.184 68.6726C141.184 68.4434 141.193 68.4413 142.235 68.4413H143.287V67.9474C143.287 67.6758 143.219 67.3203 143.137 67.1574C142.877 66.6424 141.979 66.4257 141.327 66.7203ZM147.421 66.7266C147.25 66.8038 147.11 66.8252 147.11 66.774C147.11 66.7228 146.981 66.6809 146.824 66.6809H146.537V68.2946V69.9083H146.824H147.11V68.6914C147.11 67.5447 147.123 67.4656 147.323 67.3222C147.44 67.2384 147.722 67.1699 147.95 67.1699C148.347 67.1699 148.364 67.1579 148.335 66.9009C148.311 66.6805 148.253 66.6279 148.018 66.609C147.861 66.5964 147.592 66.6493 147.421 66.7266ZM161.669 66.6852C161.189 66.8365 160.933 67.294 160.89 68.0775C160.821 69.3215 161.192 69.8593 162.195 69.967C162.841 70.0365 163.217 69.9045 163.217 69.6078C163.217 69.3769 163.199 69.3713 162.58 69.4033C162.046 69.4309 161.913 69.405 161.754 69.2425C161.383 68.8634 161.372 67.6533 161.735 67.3166C161.873 67.1894 162.054 67.16 162.545 67.1856C163.138 67.2167 163.181 67.2046 163.233 66.9941C163.263 66.8706 163.263 66.7448 163.234 66.7144C163.132 66.6106 161.975 66.589 161.669 66.6852ZM167.136 66.6528C166.544 66.7985 166.163 67.698 166.287 68.6549C166.415 69.6404 167.037 70.0963 168.073 69.9638C168.693 69.8846 168.847 69.7928 168.77 69.5476C168.719 69.3812 168.642 69.3632 168.142 69.4001C167.829 69.4233 167.471 69.4162 167.347 69.3843C167.113 69.324 166.897 68.9638 166.897 68.6323C166.897 68.4544 166.969 68.4413 167.949 68.4413H169V67.9981C169 67.3434 168.784 66.8968 168.385 66.7263C168.061 66.5876 167.528 66.5563 167.136 66.6528ZM5.86424 66.852C5.89483 66.9461 6.13361 67.6613 6.39476 68.4413L6.86954 69.8594L7.24654 69.8888L7.62345 69.9184L7.96766 69.0086C8.15702 68.5084 8.41779 67.7799 8.54731 67.3899L8.78274 66.6809H8.4652C8.17041 66.6809 8.1402 66.7113 8.04327 67.1052C7.87571 67.786 7.30103 69.2653 7.24224 69.167C7.21271 69.1175 7.137 68.8789 7.0741 68.6369C7.01121 68.3948 6.83169 67.8558 6.67512 67.4388C6.40642 66.7232 6.3743 66.6809 6.09958 66.6809C5.86501 66.6809 5.81941 66.7141 5.86424 66.852ZM22.0019 68.0481C22.0326 69.3935 22.0373 69.4198 22.2982 69.6863C22.5443 69.9377 22.6165 69.9565 23.3019 69.9477C23.7081 69.9425 24.1588 69.8885 24.3033 69.8279L24.5662 69.7176V68.1992V66.6809H24.2821H23.998L23.9714 68.0256L23.9449 69.3704L23.4038 69.3994C22.6282 69.4411 22.5588 69.3124 22.5588 67.8327V66.6809H22.2648H21.9709L22.0019 68.0481ZM32.9779 68.2946V69.9083H33.2647H33.5515V68.2946V66.6809H33.2647H32.9779V68.2946ZM81.5513 67.9812C81.59 69.4938 81.6824 69.7301 82.3103 69.9226C82.6182 70.0169 82.8461 70.0174 83.3741 69.9248C83.7436 69.86 84.0836 69.7831 84.1296 69.7541C84.1756 69.7249 84.2132 69.0216 84.2132 68.191V66.6809H83.9265H83.6397V67.9907C83.6397 69.4546 83.6571 69.4193 82.9332 69.4193C82.2173 69.4193 82.1626 69.3172 82.1264 67.9115L82.0947 66.6809H81.8063H81.518L81.5513 67.9812ZM93.5809 68.2946V69.9083H93.8676H94.1544V68.2946V66.6809H93.8676H93.5809V68.2946ZM113.941 68.2946V69.9083H114.228H114.515V68.2946V66.6809H114.228H113.941V68.2946ZM151.174 67.2921C151.302 67.6284 151.545 68.3566 151.714 68.9105L152.021 69.9178L152.409 69.8885L152.798 69.8594L153.292 68.5391C153.565 67.8129 153.816 67.0978 153.852 66.9498C153.913 66.7013 153.896 66.6809 153.631 66.6809C153.349 66.6809 153.337 66.7027 152.936 67.9074C152.711 68.582 152.501 69.1507 152.469 69.1713C152.436 69.1917 152.223 68.6398 151.994 67.9447L151.578 66.6809H151.26H150.943L151.174 67.2921ZM156.956 68.2946V69.9083H157.243H157.529V68.2946V66.6809H157.243H156.956V68.2946ZM13.8303 67.2928C14.021 67.4879 14.1039 68.5204 13.9637 68.9548C13.8287 69.3734 13.4476 69.5697 12.954 69.475C12.4709 69.3822 12.3 69.0002 12.3486 68.1213C12.3806 67.5416 12.4212 67.4108 12.6203 67.2458C12.801 67.0962 12.9495 67.0629 13.2716 67.1001C13.5011 67.1265 13.7525 67.2132 13.8303 67.2928ZM38.9565 67.3122C39.1636 67.5239 39.1912 67.6377 39.1912 68.2793C39.1912 69.2228 39.0258 69.4682 38.3898 69.4682C37.7302 69.4682 37.5396 69.2245 37.5355 68.3757C37.5337 68.0083 37.5651 67.6059 37.6054 67.4814C37.7516 67.0291 38.5786 66.9254 38.9565 67.3122ZM61.5786 67.2488C61.7348 67.4086 61.8424 68.1541 61.7819 68.657C61.7101 69.2529 61.4811 69.4682 60.9191 69.4682C60.2912 69.4682 60.125 69.2193 60.125 68.2793C60.125 67.6284 60.1508 67.5258 60.3712 67.3003C60.5833 67.0832 60.6773 67.0553 61.0487 67.098C61.2858 67.1254 61.5243 67.1933 61.5786 67.2488ZM119.713 67.1656C120.025 67.287 120.195 67.8995 120.11 68.5971C120.031 69.2436 119.806 69.4682 119.24 69.4682C118.62 69.4682 118.49 69.2834 118.448 68.3462C118.416 67.6234 118.43 67.5559 118.659 67.3223C118.919 67.0562 119.29 67.0011 119.713 67.1656ZM142.522 67.2677C142.627 67.3753 142.713 67.5733 142.713 67.7078C142.713 67.9485 142.701 67.9523 141.938 67.9523H141.163L141.225 67.6833C141.359 67.105 142.124 66.86 142.522 67.2677ZM168.235 67.2677C168.34 67.3753 168.426 67.5733 168.426 67.7078C168.426 67.9482 168.414 67.9523 167.662 67.9523C166.955 67.9523 166.897 67.9371 166.897 67.7523C166.897 67.1868 167.827 66.8501 168.235 67.2677ZM104.956 68.8754V69.4073L104.511 69.4756C103.84 69.5785 103.576 69.448 103.54 68.995C103.496 68.4537 103.632 68.3435 104.346 68.3435H104.956V68.8754Z" fill="#FDFDFD"/>
</svg>
